<svg width="118" height="99" viewBox="0 0 118 99" fill="none" xmlns="http://www.w3.org/2000/svg">
<path fill-rule="evenodd" clip-rule="evenodd" d="M117.483 15.462C99.8863 24.0521 91.0883 34.1453 91.0883 45.7419C98.5883 46.6009 104.79 49.6431 109.694 54.8688C114.598 60.0944 117.05 66.1431 117.05 73.0152C117.05 80.3167 114.67 86.4729 109.91 91.4837C105.151 96.4946 99.1652 99 91.9537 99C83.8767 99 76.8816 95.743 70.9681 89.2289C65.0546 82.7147 62.0979 74.8048 62.0979 65.4989C62.0979 37.5812 77.8189 15.7485 109.261 0L117.483 15.462ZM55.3846 15.462C37.6441 24.0521 28.774 34.1453 28.774 45.7419C36.4183 46.6009 42.6923 49.6431 47.5962 54.8688C52.5 60.0944 54.9519 66.1431 54.9519 73.0152C54.9519 80.3167 52.5361 86.4729 47.7043 91.4837C42.8726 96.4946 36.851 99 29.6394 99C21.5625 99 14.6034 95.743 8.76202 89.2289C2.92064 82.7147 0 74.8048 0 65.4989C0 37.5812 15.6489 15.7485 46.9471 0L55.3846 15.462Z" fill="#86B6F6"/>
</svg>
